<?xml version="1.0" encoding="UTF-8" standalone="no"?>
<!DOCTYPE svg PUBLIC "-//W3C//DTD SVG 1.1//EN"
 "http://www.w3.org/Graphics/SVG/1.1/DTD/svg11.dtd">
<!-- Generated by graphviz version 2.40.1 (20161225.0304)
 -->
<!-- Title: Formables Pages: 1 -->
<svg width="1018pt" height="483pt"
 viewBox="0.00 0.00 1018.00 483.20" xmlns="http://www.w3.org/2000/svg" xmlns:xlink="http://www.w3.org/1999/xlink">
<g id="graph0" class="graph" transform="scale(1 1) rotate(0) translate(4 479.2)">
<title>Formables</title>
<polygon fill="#ffffff" stroke="transparent" points="-4,4 -4,-479.2 1014,-479.2 1014,4 -4,4"/>
<g id="clust1" class="cluster">
<title>cluster_0</title>
<polygon fill="none" stroke="#ffff00" points="278,-241.6 278,-467.2 584,-467.2 584,-241.6 278,-241.6"/>
<text text-anchor="middle" x="431" y="-450.6" font-family="Times,serif" font-size="14.00" fill="#000000">Scotland</text>
</g>
<g id="clust2" class="cluster">
<title>cluster_1</title>
<polygon fill="none" stroke="#000000" points="186,-241.6 186,-390.4 270,-390.4 270,-241.6 186,-241.6"/>
<text text-anchor="middle" x="228" y="-373.8" font-family="Times,serif" font-size="14.00" fill="#000000">England</text>
</g>
<g id="clust3" class="cluster">
<title>cluster_2</title>
<polygon fill="none" stroke="#000000" points="8,-80 8,-233.6 554,-233.6 554,-80 8,-80"/>
<text text-anchor="middle" x="281" y="-217" font-family="Times,serif" font-size="14.00" fill="#000000">Irish Minors</text>
</g>
<g id="clust4" class="cluster">
<title>cluster_3</title>
<polygon fill="none" stroke="#000000" points="592,-241.6 592,-390.4 678,-390.4 678,-241.6 592,-241.6"/>
<text text-anchor="middle" x="635" y="-373.8" font-family="Times,serif" font-size="14.00" fill="#000000">Connacht</text>
</g>
<g id="clust5" class="cluster">
<title>cluster_4</title>
<polygon fill="none" stroke="#000000" points="742,-313.6 742,-467.2 976,-467.2 976,-313.6 742,-313.6"/>
<text text-anchor="middle" x="859" y="-450.6" font-family="Times,serif" font-size="14.00" fill="#000000">Norse&#45;Gaelic Minors</text>
</g>
<g id="clust6" class="cluster">
<title>cluster_5</title>
<polygon fill="none" stroke="#000000" points="926,-8 926,-156.8 1002,-156.8 1002,-8 926,-8"/>
<text text-anchor="middle" x="964" y="-140.2" font-family="Times,serif" font-size="14.00" fill="#000000">Wales</text>
</g>
<g id="clust7" class="cluster">
<title>cluster_6</title>
<polygon fill="none" stroke="#000000" points="718,-80 718,-233.6 810,-233.6 810,-80 718,-80"/>
<text text-anchor="middle" x="764" y="-217" font-family="Times,serif" font-size="14.00" fill="#000000">Cornwall</text>
</g>
<g id="clust8" class="cluster">
<title>cluster_7</title>
<polygon fill="none" stroke="#000000" points="818,-80 818,-233.6 896,-233.6 896,-80 818,-80"/>
<text text-anchor="middle" x="857" y="-217" font-family="Times,serif" font-size="14.00" fill="#000000">Brittany</text>
</g>
<!-- gbr -->
<g id="node1" class="node">
<title>gbr</title>
<defs>
<linearGradient id="l_0" gradientUnits="userSpaceOnUse" x1="193.9017" y1="-267.6" x2="262.0983" y2="-267.6" >
<stop offset="0.499" style="stop-color:#ff3030;stop-opacity:1.;"/>
<stop offset="0.500" style="stop-color:#ffff00;stop-opacity:1.;"/>
</linearGradient>
</defs>
<polygon fill="url(#l_0)" stroke="#000000" points="262.0983,-285.6 193.9017,-285.6 193.9017,-249.6 262.0983,-249.6 262.0983,-285.6"/>
<text text-anchor="middle" x="228" y="-263.4" font-family="Times,serif" font-size="14.00" fill="#000000">Britannia</text>
</g>
<!-- goi -->
<g id="node2" class="node">
<title>goi</title>
<defs>
<linearGradient id="l_1" gradientUnits="userSpaceOnUse" x1="601.7921" y1="-267.6" x2="666.2079" y2="-267.6" >
<stop offset="0.499" style="stop-color:#ffff00;stop-opacity:1.;"/>
<stop offset="0.500" style="stop-color:#caff70;stop-opacity:1.;"/>
</linearGradient>
</defs>
<polygon fill="url(#l_1)" stroke="#000000" points="666.2079,-285.6 601.7921,-285.6 601.7921,-249.6 666.2079,-249.6 666.2079,-285.6"/>
<text text-anchor="middle" x="634" y="-263.4" font-family="Times,serif" font-size="14.00" fill="#000000">Goidelia</text>
</g>
<!-- Paths -->
<g id="node3" class="node">
<title>Paths</title>
<polygon fill="#ffff00" stroke="#000000" points="534.493,-434.4 469.507,-434.4 469.507,-398.4 534.493,-398.4 534.493,-434.4"/>
<text text-anchor="middle" x="502" y="-412.2" font-family="Times,serif" font-size="14.00" fill="#000000">Scotland</text>
</g>
<!-- sco -->
<g id="node4" class="node">
<title>sco</title>
<polygon fill="#ffff00" stroke="#000000" points="417.9869,-357.6 286.0131,-357.6 286.0131,-321.6 417.9869,-321.6 417.9869,-357.6"/>
<text text-anchor="middle" x="352" y="-335.4" font-family="Times,serif" font-size="14.00" fill="#000000">Anglophile Scotland</text>
</g>
<!-- Paths&#45;&gt;sco -->
<g id="edge1" class="edge">
<title>Paths&#45;&gt;sco</title>
<path fill="none" stroke="#000000" d="M469.496,-407.1835C456.0198,-402.842 440.4296,-397.1296 427,-390.4 412.0062,-382.8866 396.4898,-372.8177 383.4879,-363.6262"/>
<polygon fill="#000000" stroke="#000000" points="385.4957,-360.759 375.3376,-357.7484 381.4012,-366.4366 385.4957,-360.759"/>
</g>
<!-- alba -->
<g id="node5" class="node">
<title>alba</title>
<polygon fill="#ffff00" stroke="#000000" points="490,-357.6 436,-357.6 436,-321.6 490,-321.6 490,-357.6"/>
<text text-anchor="middle" x="463" y="-335.4" font-family="Times,serif" font-size="14.00" fill="#000000">Alba</text>
</g>
<!-- Paths&#45;&gt;alba -->
<g id="edge2" class="edge">
<title>Paths&#45;&gt;alba</title>
<path fill="none" stroke="#000000" d="M492.7575,-398.1995C487.9977,-388.8263 482.098,-377.2084 476.8101,-366.7953"/>
<polygon fill="#000000" stroke="#000000" points="479.8246,-365.0014 472.1761,-357.6699 473.5833,-368.1709 479.8246,-365.0014"/>
</g>
<!-- gae -->
<g id="node6" class="node">
<title>gae</title>
<polygon fill="#ffff00" stroke="#000000" points="575.8177,-357.6 508.1823,-357.6 508.1823,-321.6 575.8177,-321.6 575.8177,-357.6"/>
<text text-anchor="middle" x="542" y="-335.4" font-family="Times,serif" font-size="14.00" fill="#000000">Gaeldom</text>
</g>
<!-- Paths&#45;&gt;gae -->
<g id="edge3" class="edge">
<title>Paths&#45;&gt;gae</title>
<path fill="none" stroke="#000000" d="M511.4794,-398.1995C516.3613,-388.8263 522.4123,-377.2084 527.8358,-366.7953"/>
<polygon fill="#000000" stroke="#000000" points="531.0734,-368.1558 532.5886,-357.6699 524.865,-364.9222 531.0734,-368.1558"/>
</g>
<!-- clt -->
<g id="node28" class="node">
<title>clt</title>
<polygon fill="#7fff00" stroke="#000000" points="791.6533,-52 736.3467,-52 736.3467,-16 791.6533,-16 791.6533,-52"/>
<text text-anchor="middle" x="764" y="-29.8" font-family="Times,serif" font-size="14.00" fill="#000000">Celtica</text>
</g>
<!-- Paths&#45;&gt;clt -->
<g id="edge25" class="edge">
<title>Paths&#45;&gt;clt</title>
<path fill="none" stroke="#000000" d="M534.6859,-413.8067C583.7556,-409.6002 671.8291,-400.7131 682,-390.4 720.6473,-351.2122 698,-322.6391 698,-267.6 698,-267.6 698,-267.6 698,-182.8 698,-136.561 692.2093,-120.7824 714,-80 718.1152,-72.2982 724.0317,-65.2041 730.3635,-59.0101"/>
<polygon fill="#000000" stroke="#000000" points="732.8489,-61.4811 737.9042,-52.1701 728.1459,-56.2963 732.8489,-61.4811"/>
</g>
<!-- sco&#45;&gt;gbr -->
<g id="edge7" class="edge">
<title>sco&#45;&gt;gbr</title>
<path fill="none" stroke="#000000" d="M320.7096,-321.4314C304.7023,-312.1368 285.0414,-300.7208 267.9506,-290.7971"/>
<polygon fill="#000000" stroke="#000000" points="269.6858,-287.7575 259.2804,-285.7628 266.1708,-293.811 269.6858,-287.7575"/>
</g>
<!-- Albion -->
<g id="node7" class="node">
<title>Albion</title>
<polygon fill="#ffff00" stroke="#000000" points="434.3879,-285.6 379.6121,-285.6 379.6121,-249.6 434.3879,-249.6 434.3879,-285.6"/>
<text text-anchor="middle" x="407" y="-263.4" font-family="Times,serif" font-size="14.00" fill="#000000">Albion</text>
</g>
<!-- sco&#45;&gt;Albion -->
<g id="edge5" class="edge">
<title>sco&#45;&gt;Albion</title>
<path fill="none" stroke="#000000" d="M365.8788,-321.4314C372.2136,-313.1386 379.8384,-303.157 386.7926,-294.0533"/>
<polygon fill="#000000" stroke="#000000" points="389.6452,-296.0847 392.9343,-286.0133 384.0825,-291.8353 389.6452,-296.0847"/>
</g>
<!-- alba&#45;&gt;Albion -->
<g id="edge4" class="edge">
<title>alba&#45;&gt;Albion</title>
<path fill="none" stroke="#000000" d="M448.8688,-321.4314C442.4189,-313.1386 434.6555,-303.157 427.5748,-294.0533"/>
<polygon fill="#000000" stroke="#000000" points="430.2236,-291.758 421.3214,-286.0133 424.6981,-296.0556 430.2236,-291.758"/>
</g>
<!-- gae&#45;&gt;goi -->
<g id="edge8" class="edge">
<title>gae&#45;&gt;goi</title>
<path fill="none" stroke="#000000" d="M565.2155,-321.4314C576.547,-312.5632 590.3464,-301.7637 602.6027,-292.1718"/>
<polygon fill="#000000" stroke="#000000" points="605.074,-294.6822 610.7919,-285.7628 600.7598,-289.1697 605.074,-294.6822"/>
</g>
<!-- gae&#45;&gt;Albion -->
<g id="edge6" class="edge">
<title>gae&#45;&gt;Albion</title>
<path fill="none" stroke="#000000" d="M512.574,-321.3822C508.0619,-318.7127 503.4313,-316.0424 499,-313.6 481.0539,-303.7087 460.7115,-293.4424 443.7267,-285.1247"/>
<polygon fill="#000000" stroke="#000000" points="445.1961,-281.9474 434.6727,-280.719 442.1332,-288.2417 445.1961,-281.9474"/>
</g>
<!-- gae&#45;&gt;clt -->
<g id="edge31" class="edge">
<title>gae&#45;&gt;clt</title>
<path fill="none" stroke="#000000" d="M547.7326,-321.5991C563.0623,-275.9273 609.0067,-153.9355 684,-80 696.2601,-67.9128 712.3239,-57.8678 726.8377,-50.2803"/>
<polygon fill="#000000" stroke="#000000" points="728.7162,-53.2543 736.0959,-45.6524 725.5863,-46.993 728.7162,-53.2543"/>
</g>
<!-- Munster -->
<g id="node16" class="node">
<title>Munster</title>
<polygon fill="#adff2f" stroke="#000000" points="78.1559,-200.8 15.8441,-200.8 15.8441,-164.8 78.1559,-164.8 78.1559,-200.8"/>
<text text-anchor="middle" x="47" y="-178.6" font-family="Times,serif" font-size="14.00" fill="#000000">Munster</text>
</g>
<!-- Albion&#45;&gt;Munster -->
<!-- eng -->
<g id="node8" class="node">
<title>eng</title>
<polygon fill="#ff3030" stroke="#000000" points="259.1587,-357.6 196.8413,-357.6 196.8413,-321.6 259.1587,-321.6 259.1587,-357.6"/>
<text text-anchor="middle" x="228" y="-335.4" font-family="Times,serif" font-size="14.00" fill="#000000">England</text>
</g>
<!-- eng&#45;&gt;gbr -->
<g id="edge9" class="edge">
<title>eng&#45;&gt;gbr</title>
<path fill="none" stroke="#000000" d="M228,-321.4314C228,-313.731 228,-304.5743 228,-296.0166"/>
<polygon fill="#000000" stroke="#000000" points="231.5001,-296.0132 228,-286.0133 224.5001,-296.0133 231.5001,-296.0132"/>
</g>
<!-- Tyrone -->
<g id="node9" class="node">
<title>Tyrone</title>
<polygon fill="#adff2f" stroke="#000000" points="546.4294,-200.8 489.5706,-200.8 489.5706,-164.8 546.4294,-164.8 546.4294,-200.8"/>
<text text-anchor="middle" x="518" y="-178.6" font-family="Times,serif" font-size="14.00" fill="#000000">Tyrone</text>
</g>
<!-- Ireland -->
<g id="node10" class="node">
<title>Ireland</title>
<polygon fill="#adff2f" stroke="#000000" points="355.6422,-124 300.3578,-124 300.3578,-88 355.6422,-88 355.6422,-124"/>
<text text-anchor="middle" x="328" y="-101.8" font-family="Times,serif" font-size="14.00" fill="#000000">Ireland</text>
</g>
<!-- Tyrone&#45;&gt;Ireland -->
<g id="edge10" class="edge">
<title>Tyrone&#45;&gt;Ireland</title>
<path fill="none" stroke="#000000" d="M489.4297,-168.6007C486.5965,-167.2832 483.7518,-165.9955 481,-164.8 442.023,-147.8666 396.4549,-130.6799 365.2493,-119.2978"/>
<polygon fill="#000000" stroke="#000000" points="366.243,-115.9351 355.6489,-115.814 363.8552,-122.5153 366.243,-115.9351"/>
</g>
<!-- Ireland&#45;&gt;clt -->
<g id="edge26" class="edge">
<title>Ireland&#45;&gt;clt</title>
<path fill="none" stroke="#000000" d="M355.937,-101.3865C431.5345,-88.9026 640.1929,-54.4452 726.1934,-40.2433"/>
<polygon fill="#000000" stroke="#000000" points="726.9996,-43.6577 736.2957,-38.575 725.859,-36.7512 726.9996,-43.6577"/>
</g>
<!-- Ulster -->
<g id="node11" class="node">
<title>Ulster</title>
<polygon fill="#adff2f" stroke="#000000" points="472,-200.8 418,-200.8 418,-164.8 472,-164.8 472,-200.8"/>
<text text-anchor="middle" x="445" y="-178.6" font-family="Times,serif" font-size="14.00" fill="#000000">Ulster</text>
</g>
<!-- Ulster&#45;&gt;Ireland -->
<g id="edge11" class="edge">
<title>Ulster&#45;&gt;Ireland</title>
<path fill="none" stroke="#000000" d="M417.8638,-164.9875C401.9978,-154.5729 381.7619,-141.2899 364.5114,-129.9664"/>
<polygon fill="#000000" stroke="#000000" points="366.0821,-126.8108 355.8015,-124.2492 362.2408,-132.6627 366.0821,-126.8108"/>
</g>
<!-- Kildare -->
<g id="node12" class="node">
<title>Kildare</title>
<polygon fill="#adff2f" stroke="#000000" points="399.9776,-200.8 342.0224,-200.8 342.0224,-164.8 399.9776,-164.8 399.9776,-200.8"/>
<text text-anchor="middle" x="371" y="-178.6" font-family="Times,serif" font-size="14.00" fill="#000000">Kildare</text>
</g>
<!-- Kildare&#45;&gt;Ireland -->
<g id="edge12" class="edge">
<title>Kildare&#45;&gt;Ireland</title>
<path fill="none" stroke="#000000" d="M360.8096,-164.5995C355.508,-155.1306 348.9239,-143.3711 343.0483,-132.8769"/>
<polygon fill="#000000" stroke="#000000" points="346.0566,-131.0855 338.1173,-124.0699 339.9487,-134.5052 346.0566,-131.0855"/>
</g>
<!-- Thormond -->
<g id="node13" class="node">
<title>Thormond</title>
<polygon fill="#adff2f" stroke="#000000" points="323.6039,-200.8 248.3961,-200.8 248.3961,-164.8 323.6039,-164.8 323.6039,-200.8"/>
<text text-anchor="middle" x="286" y="-178.6" font-family="Times,serif" font-size="14.00" fill="#000000">Thormond</text>
</g>
<!-- Thormond&#45;&gt;Ireland -->
<g id="edge13" class="edge">
<title>Thormond&#45;&gt;Ireland</title>
<path fill="none" stroke="#000000" d="M295.9534,-164.5995C301.1317,-155.1306 307.5627,-143.3711 313.3017,-132.8769"/>
<polygon fill="#000000" stroke="#000000" points="316.3907,-134.523 318.118,-124.0699 310.2491,-131.1642 316.3907,-134.523"/>
</g>
<!-- Ormond -->
<g id="node14" class="node">
<title>Ormond</title>
<polygon fill="#adff2f" stroke="#000000" points="230.1587,-200.8 167.8413,-200.8 167.8413,-164.8 230.1587,-164.8 230.1587,-200.8"/>
<text text-anchor="middle" x="199" y="-178.6" font-family="Times,serif" font-size="14.00" fill="#000000">Ormond</text>
</g>
<!-- Ormond&#45;&gt;Ireland -->
<g id="edge14" class="edge">
<title>Ormond&#45;&gt;Ireland</title>
<path fill="none" stroke="#000000" d="M229.2448,-164.7938C247.8436,-153.721 271.7957,-139.4612 291.453,-127.7582"/>
<polygon fill="#000000" stroke="#000000" points="293.3458,-130.7047 300.1479,-122.5817 289.7649,-124.6899 293.3458,-130.7047"/>
</g>
<!-- Offaly -->
<g id="node15" class="node">
<title>Offaly</title>
<polygon fill="#adff2f" stroke="#000000" points="150,-200.8 96,-200.8 96,-164.8 150,-164.8 150,-200.8"/>
<text text-anchor="middle" x="123" y="-178.6" font-family="Times,serif" font-size="14.00" fill="#000000">Offaly</text>
</g>
<!-- Offaly&#45;&gt;Ireland -->
<g id="edge15" class="edge">
<title>Offaly&#45;&gt;Ireland</title>
<path fill="none" stroke="#000000" d="M150.347,-168.6713C153.2447,-167.3112 156.1672,-165.9951 159,-164.8 203.2864,-146.1158 255.7751,-128.5374 290.3733,-117.5535"/>
<polygon fill="#000000" stroke="#000000" points="291.5845,-120.8416 300.071,-114.4988 289.4814,-114.1649 291.5845,-120.8416"/>
</g>
<!-- Munster&#45;&gt;Ireland -->
<g id="edge16" class="edge">
<title>Munster&#45;&gt;Ireland</title>
<path fill="none" stroke="#000000" d="M78.2232,-168.0958C81.1624,-166.9104 84.1194,-165.7902 87,-164.8 157.1973,-140.6709 242.112,-122.3794 290.1084,-113.0022"/>
<polygon fill="#000000" stroke="#000000" points="290.9009,-116.414 300.057,-111.0833 289.575,-109.5407 290.9009,-116.414"/>
</g>
<!-- Connacht -->
<g id="node17" class="node">
<title>Connacht</title>
<polygon fill="#caff70" stroke="#000000" points="669.6572,-357.6 600.3428,-357.6 600.3428,-321.6 669.6572,-321.6 669.6572,-357.6"/>
<text text-anchor="middle" x="635" y="-335.4" font-family="Times,serif" font-size="14.00" fill="#000000">Connacht</text>
</g>
<!-- Connacht&#45;&gt;goi -->
<g id="edge17" class="edge">
<title>Connacht&#45;&gt;goi</title>
<path fill="none" stroke="#000000" d="M634.7477,-321.4314C634.6407,-313.731 634.5135,-304.5743 634.3947,-296.0166"/>
<polygon fill="#000000" stroke="#000000" points="637.8944,-295.9637 634.2557,-286.0133 630.8951,-296.0609 637.8944,-295.9637"/>
</g>
<!-- Cork -->
<g id="node18" class="node">
<title>Cork</title>
<polygon fill="#dedede" stroke="#000000" points="968,-434.4 914,-434.4 914,-398.4 968,-398.4 968,-434.4"/>
<text text-anchor="middle" x="941" y="-412.2" font-family="Times,serif" font-size="14.00" fill="#000000">Cork</text>
</g>
<!-- Finngail -->
<g id="node19" class="node">
<title>Finngail</title>
<polygon fill="#dedede" stroke="#000000" points="890.1699,-357.6 827.8301,-357.6 827.8301,-321.6 890.1699,-321.6 890.1699,-357.6"/>
<text text-anchor="middle" x="859" y="-335.4" font-family="Times,serif" font-size="14.00" fill="#000000">Finngail</text>
</g>
<!-- Cork&#45;&gt;Finngail -->
<g id="edge18" class="edge">
<title>Cork&#45;&gt;Finngail</title>
<path fill="none" stroke="#000000" d="M921.5671,-398.1995C910.8445,-388.1568 897.3705,-375.5372 885.6752,-364.5836"/>
<polygon fill="#000000" stroke="#000000" points="887.9847,-361.9512 878.2934,-357.6699 883.1995,-367.0603 887.9847,-361.9512"/>
</g>
<!-- Waterford -->
<g id="node20" class="node">
<title>Waterford</title>
<polygon fill="#dedede" stroke="#000000" points="895.5178,-434.4 822.4822,-434.4 822.4822,-398.4 895.5178,-398.4 895.5178,-434.4"/>
<text text-anchor="middle" x="859" y="-412.2" font-family="Times,serif" font-size="14.00" fill="#000000">Waterford</text>
</g>
<!-- Waterford&#45;&gt;Finngail -->
<g id="edge19" class="edge">
<title>Waterford&#45;&gt;Finngail</title>
<path fill="none" stroke="#000000" d="M859,-398.1995C859,-389.1132 859,-377.9176 859,-367.7549"/>
<polygon fill="#000000" stroke="#000000" points="862.5001,-367.6698 859,-357.6699 855.5001,-367.6699 862.5001,-367.6698"/>
</g>
<!-- Dublin -->
<g id="node21" class="node">
<title>Dublin</title>
<polygon fill="#dedede" stroke="#000000" points="804.3879,-434.4 749.6121,-434.4 749.6121,-398.4 804.3879,-398.4 804.3879,-434.4"/>
<text text-anchor="middle" x="777" y="-412.2" font-family="Times,serif" font-size="14.00" fill="#000000">Dublin</text>
</g>
<!-- Dublin&#45;&gt;Finngail -->
<g id="edge20" class="edge">
<title>Dublin&#45;&gt;Finngail</title>
<path fill="none" stroke="#000000" d="M796.4329,-398.1995C807.1555,-388.1568 820.6295,-375.5372 832.3248,-364.5836"/>
<polygon fill="#000000" stroke="#000000" points="834.8005,-367.0603 839.7066,-357.6699 830.0153,-361.9512 834.8005,-367.0603"/>
</g>
<!-- Wales -->
<g id="node22" class="node">
<title>Wales</title>
<polygon fill="#ee7621" stroke="#000000" points="990,-124 936,-124 936,-88 990,-88 990,-124"/>
<text text-anchor="middle" x="963" y="-101.8" font-family="Times,serif" font-size="14.00" fill="#000000">Wales</text>
</g>
<!-- Prydain -->
<g id="node23" class="node">
<title>Prydain</title>
<polygon fill="#ee7621" stroke="#000000" points="993.5501,-52 934.4499,-52 934.4499,-16 993.5501,-16 993.5501,-52"/>
<text text-anchor="middle" x="964" y="-29.8" font-family="Times,serif" font-size="14.00" fill="#000000">Prydain</text>
</g>
<!-- Wales&#45;&gt;Prydain -->
<g id="edge21" class="edge">
<title>Wales&#45;&gt;Prydain</title>
<path fill="none" stroke="#000000" d="M963.2523,-87.8314C963.3593,-80.131 963.4865,-70.9743 963.6053,-62.4166"/>
<polygon fill="#000000" stroke="#000000" points="967.1049,-62.4609 963.7443,-52.4133 960.1056,-62.3637 967.1049,-62.4609"/>
</g>
<!-- Wales&#45;&gt;clt -->
<g id="edge28" class="edge">
<title>Wales&#45;&gt;clt</title>
<path fill="none" stroke="#000000" d="M936.7023,-87.8094C931.9367,-84.9556 926.9162,-82.2204 922,-80 882.5296,-62.173 834.4012,-49.3288 801.7093,-41.8172"/>
<polygon fill="#000000" stroke="#000000" points="802.1914,-38.3385 791.668,-39.5663 800.6602,-45.169 802.1914,-38.3385"/>
</g>
<!-- Cornwall -->
<g id="node24" class="node">
<title>Cornwall</title>
<polygon fill="#ff7f50" stroke="#000000" points="798.0997,-200.8 729.9003,-200.8 729.9003,-164.8 798.0997,-164.8 798.0997,-200.8"/>
<text text-anchor="middle" x="764" y="-178.6" font-family="Times,serif" font-size="14.00" fill="#000000">Cornwall</text>
</g>
<!-- Dumnonia -->
<g id="node25" class="node">
<title>Dumnonia</title>
<polygon fill="#ff7f50" stroke="#000000" points="801.6025,-124 726.3975,-124 726.3975,-88 801.6025,-88 801.6025,-124"/>
<text text-anchor="middle" x="764" y="-101.8" font-family="Times,serif" font-size="14.00" fill="#000000">Dumnonia</text>
</g>
<!-- Cornwall&#45;&gt;Dumnonia -->
<g id="edge22" class="edge">
<title>Cornwall&#45;&gt;Dumnonia</title>
<path fill="none" stroke="#000000" d="M764,-164.5995C764,-155.5132 764,-144.3176 764,-134.1549"/>
<polygon fill="#000000" stroke="#000000" points="767.5001,-134.0698 764,-124.0699 760.5001,-134.0699 767.5001,-134.0698"/>
</g>
<!-- Dumnonia&#45;&gt;clt -->
<g id="edge27" class="edge">
<title>Dumnonia&#45;&gt;clt</title>
<path fill="none" stroke="#000000" d="M764,-87.8314C764,-80.131 764,-70.9743 764,-62.4166"/>
<polygon fill="#000000" stroke="#000000" points="767.5001,-62.4132 764,-52.4133 760.5001,-62.4133 767.5001,-62.4132"/>
</g>
<!-- Brittany -->
<g id="node26" class="node">
<title>Brittany</title>
<polygon fill="#deb887" stroke="#000000" points="887.8837,-200.8 826.1163,-200.8 826.1163,-164.8 887.8837,-164.8 887.8837,-200.8"/>
<text text-anchor="middle" x="857" y="-178.6" font-family="Times,serif" font-size="14.00" fill="#000000">Brittany</text>
</g>
<!-- Gallia -->
<g id="node27" class="node">
<title>Gallia</title>
<polygon fill="#deb887" stroke="#000000" points="880,-124 826,-124 826,-88 880,-88 880,-124"/>
<text text-anchor="middle" x="853" y="-101.8" font-family="Times,serif" font-size="14.00" fill="#000000">Gallia</text>
</g>
<!-- Brittany&#45;&gt;Gallia -->
<g id="edge23" class="edge">
<title>Brittany&#45;&gt;Gallia</title>
<path fill="none" stroke="#000000" d="M856.0521,-164.5995C855.5788,-155.5132 854.9957,-144.3176 854.4664,-134.1549"/>
<polygon fill="#000000" stroke="#000000" points="857.9566,-133.8743 853.9411,-124.0699 850.9661,-134.2384 857.9566,-133.8743"/>
</g>
<!-- Brittany&#45;&gt;clt -->
<g id="edge29" class="edge">
<title>Brittany&#45;&gt;clt</title>
<path fill="none" stroke="#000000" d="M883.7041,-164.6911C885.8128,-162.2783 887.6464,-159.6439 889,-156.8 903.6695,-125.9797 908.5284,-107.9951 889,-80 878.689,-65.2186 834.5916,-51.3834 801.6747,-42.8223"/>
<polygon fill="#000000" stroke="#000000" points="802.421,-39.4008 791.8678,-40.3395 800.703,-46.1867 802.421,-39.4008"/>
</g>
<!-- Gallia&#45;&gt;clt -->
<g id="edge30" class="edge">
<title>Gallia&#45;&gt;clt</title>
<path fill="none" stroke="#000000" d="M830.5415,-87.8314C819.5795,-78.9632 806.2301,-68.1637 794.3735,-58.5718"/>
<polygon fill="#000000" stroke="#000000" points="796.4271,-55.7313 786.4513,-52.1628 792.0245,-61.1734 796.4271,-55.7313"/>
</g>
</g>
</svg>
