<?xml version="1.0" encoding="UTF-8" standalone="no"?>
<!DOCTYPE svg PUBLIC "-//W3C//DTD SVG 1.1//EN"
 "http://www.w3.org/Graphics/SVG/1.1/DTD/svg11.dtd">
<!-- Generated by graphviz version 2.40.1 (20161225.0304)
 -->
<!-- Title: Formables Pages: 1 -->
<svg width="1156pt" height="491pt"
 viewBox="0.00 0.00 1156.00 491.20" xmlns="http://www.w3.org/2000/svg" xmlns:xlink="http://www.w3.org/1999/xlink">
<g id="graph0" class="graph" transform="scale(1 1) rotate(0) translate(4 487.2)">
<title>Formables</title>
<polygon fill="#ffffff" stroke="transparent" points="-4,4 -4,-487.2 1152,-487.2 1152,4 -4,4"/>
<g id="clust1" class="cluster">
<title>cluster_0</title>
<polygon fill="none" stroke="#ffff00" points="278,-249.6 278,-475.2 584,-475.2 584,-249.6 278,-249.6"/>
<text text-anchor="middle" x="431" y="-458.6" font-family="Times,serif" font-size="14.00" fill="#000000">Scotland</text>
</g>
<g id="clust2" class="cluster">
<title>cluster_1</title>
<polygon fill="none" stroke="#000000" points="186,-249.6 186,-398.4 270,-398.4 270,-249.6 186,-249.6"/>
<text text-anchor="middle" x="228" y="-381.8" font-family="Times,serif" font-size="14.00" fill="#000000">England</text>
</g>
<g id="clust3" class="cluster">
<title>cluster_2</title>
<polygon fill="none" stroke="#000000" points="8,-80 8,-241.6 554,-241.6 554,-80 8,-80"/>
<text text-anchor="middle" x="281" y="-225" font-family="Times,serif" font-size="14.00" fill="#000000">Irish Minors</text>
</g>
<g id="clust4" class="cluster">
<title>cluster_3</title>
<polygon fill="none" stroke="#000000" points="592,-249.6 592,-398.4 678,-398.4 678,-249.6 592,-249.6"/>
<text text-anchor="middle" x="635" y="-381.8" font-family="Times,serif" font-size="14.00" fill="#000000">Connacht</text>
</g>
<g id="clust5" class="cluster">
<title>cluster_4</title>
<polygon fill="none" stroke="#000000" points="904,-164.8 904,-475.2 1140,-475.2 1140,-164.8 904,-164.8"/>
<text text-anchor="middle" x="1022" y="-458.6" font-family="Times,serif" font-size="14.00" fill="#000000">Norse&#45;Gaelic Minors</text>
</g>
<g id="clust6" class="cluster">
<title>cluster_5</title>
<polygon fill="none" stroke="#000000" points="926,-8 926,-156.8 1002,-156.8 1002,-8 926,-8"/>
<text text-anchor="middle" x="964" y="-140.2" font-family="Times,serif" font-size="14.00" fill="#000000">Wales</text>
</g>
<g id="clust7" class="cluster">
<title>cluster_6</title>
<polygon fill="none" stroke="#000000" points="718,-80 718,-241.6 810,-241.6 810,-80 718,-80"/>
<text text-anchor="middle" x="764" y="-225" font-family="Times,serif" font-size="14.00" fill="#000000">Cornwall</text>
</g>
<g id="clust8" class="cluster">
<title>cluster_7</title>
<polygon fill="none" stroke="#000000" points="818,-80 818,-241.6 896,-241.6 896,-80 818,-80"/>
<text text-anchor="middle" x="857" y="-225" font-family="Times,serif" font-size="14.00" fill="#000000">Brittany</text>
</g>
<!-- gbr -->
<g id="node1" class="node">
<title>gbr</title>
<defs>
<linearGradient id="l_0" gradientUnits="userSpaceOnUse" x1="193.9017" y1="-275.6" x2="262.0983" y2="-275.6" >
<stop offset="0.499" style="stop-color:#ff3030;stop-opacity:1.;"/>
<stop offset="0.500" style="stop-color:#ffff00;stop-opacity:1.;"/>
</linearGradient>
</defs>
<polygon fill="url(#l_0)" stroke="#000000" points="262.0983,-293.6 193.9017,-293.6 193.9017,-257.6 262.0983,-257.6 262.0983,-293.6"/>
<text text-anchor="middle" x="228" y="-271.4" font-family="Times,serif" font-size="14.00" fill="#000000">Britannia</text>
</g>
<!-- goi -->
<g id="node2" class="node">
<title>goi</title>
<defs>
<linearGradient id="l_1" gradientUnits="userSpaceOnUse" x1="601.7921" y1="-275.6" x2="666.2079" y2="-275.6" >
<stop offset="0.499" style="stop-color:#ffff00;stop-opacity:1.;"/>
<stop offset="0.500" style="stop-color:#caff70;stop-opacity:1.;"/>
</linearGradient>
</defs>
<polygon fill="url(#l_1)" stroke="#000000" points="666.2079,-293.6 601.7921,-293.6 601.7921,-257.6 666.2079,-257.6 666.2079,-293.6"/>
<text text-anchor="middle" x="634" y="-271.4" font-family="Times,serif" font-size="14.00" fill="#000000">Goidelia</text>
</g>
<!-- Paths -->
<g id="node3" class="node">
<title>Paths</title>
<polygon fill="#ffff00" stroke="#000000" points="534.493,-442.4 469.507,-442.4 469.507,-406.4 534.493,-406.4 534.493,-442.4"/>
<text text-anchor="middle" x="502" y="-420.2" font-family="Times,serif" font-size="14.00" fill="#000000">Scotland</text>
</g>
<!-- sco -->
<g id="node4" class="node">
<title>sco</title>
<polygon fill="#ffff00" stroke="#000000" points="417.9869,-365.6 286.0131,-365.6 286.0131,-329.6 417.9869,-329.6 417.9869,-365.6"/>
<text text-anchor="middle" x="352" y="-343.4" font-family="Times,serif" font-size="14.00" fill="#000000">Anglophile Scotland</text>
</g>
<!-- Paths&#45;&gt;sco -->
<g id="edge1" class="edge">
<title>Paths&#45;&gt;sco</title>
<path fill="none" stroke="#000000" d="M469.496,-415.1835C456.0198,-410.842 440.4296,-405.1296 427,-398.4 412.0062,-390.8866 396.4898,-380.8177 383.4879,-371.6262"/>
<polygon fill="#000000" stroke="#000000" points="385.4957,-368.759 375.3376,-365.7484 381.4012,-374.4366 385.4957,-368.759"/>
</g>
<!-- alba -->
<g id="node5" class="node">
<title>alba</title>
<polygon fill="#ffff00" stroke="#000000" points="490,-365.6 436,-365.6 436,-329.6 490,-329.6 490,-365.6"/>
<text text-anchor="middle" x="463" y="-343.4" font-family="Times,serif" font-size="14.00" fill="#000000">Alba</text>
</g>
<!-- Paths&#45;&gt;alba -->
<g id="edge2" class="edge">
<title>Paths&#45;&gt;alba</title>
<path fill="none" stroke="#000000" d="M492.7575,-406.1995C487.9977,-396.8263 482.098,-385.2084 476.8101,-374.7953"/>
<polygon fill="#000000" stroke="#000000" points="479.8246,-373.0014 472.1761,-365.6699 473.5833,-376.1709 479.8246,-373.0014"/>
</g>
<!-- gae -->
<g id="node6" class="node">
<title>gae</title>
<polygon fill="#ffff00" stroke="#000000" points="575.8177,-365.6 508.1823,-365.6 508.1823,-329.6 575.8177,-329.6 575.8177,-365.6"/>
<text text-anchor="middle" x="542" y="-343.4" font-family="Times,serif" font-size="14.00" fill="#000000">Gaeldom</text>
</g>
<!-- Paths&#45;&gt;gae -->
<g id="edge3" class="edge">
<title>Paths&#45;&gt;gae</title>
<path fill="none" stroke="#000000" d="M511.4794,-406.1995C516.3613,-396.8263 522.4123,-385.2084 527.8358,-374.7953"/>
<polygon fill="#000000" stroke="#000000" points="531.0734,-376.1558 532.5886,-365.6699 524.865,-372.9222 531.0734,-376.1558"/>
</g>
<!-- clt -->
<g id="node31" class="node">
<title>clt</title>
<polygon fill="#7fff00" stroke="#000000" points="791.6533,-52 736.3467,-52 736.3467,-16 791.6533,-16 791.6533,-52"/>
<text text-anchor="middle" x="764" y="-29.8" font-family="Times,serif" font-size="14.00" fill="#000000">Celtica</text>
</g>
<!-- Paths&#45;&gt;clt -->
<g id="edge28" class="edge">
<title>Paths&#45;&gt;clt</title>
<path fill="none" stroke="#000000" d="M534.6859,-421.8067C583.7556,-417.6002 671.8291,-408.7131 682,-398.4 720.6473,-359.2122 698,-330.6391 698,-275.6 698,-275.6 698,-275.6 698,-190.8 698,-141.0448 690.7937,-124.0119 714,-80 718.0728,-72.2757 723.9714,-65.1721 730.2992,-58.976"/>
<polygon fill="#000000" stroke="#000000" points="732.7847,-61.447 737.841,-52.1365 728.0822,-56.2617 732.7847,-61.447"/>
</g>
<!-- sco&#45;&gt;gbr -->
<g id="edge7" class="edge">
<title>sco&#45;&gt;gbr</title>
<path fill="none" stroke="#000000" d="M320.7096,-329.4314C304.7023,-320.1368 285.0414,-308.7208 267.9506,-298.7971"/>
<polygon fill="#000000" stroke="#000000" points="269.6858,-295.7575 259.2804,-293.7628 266.1708,-301.811 269.6858,-295.7575"/>
</g>
<!-- Albion -->
<g id="node7" class="node">
<title>Albion</title>
<polygon fill="#ffff00" stroke="#000000" points="434.3879,-293.6 379.6121,-293.6 379.6121,-257.6 434.3879,-257.6 434.3879,-293.6"/>
<text text-anchor="middle" x="407" y="-271.4" font-family="Times,serif" font-size="14.00" fill="#000000">Albion</text>
</g>
<!-- sco&#45;&gt;Albion -->
<g id="edge5" class="edge">
<title>sco&#45;&gt;Albion</title>
<path fill="none" stroke="#000000" d="M365.8788,-329.4314C372.2136,-321.1386 379.8384,-311.157 386.7926,-302.0533"/>
<polygon fill="#000000" stroke="#000000" points="389.6452,-304.0847 392.9343,-294.0133 384.0825,-299.8353 389.6452,-304.0847"/>
</g>
<!-- alba&#45;&gt;Albion -->
<g id="edge4" class="edge">
<title>alba&#45;&gt;Albion</title>
<path fill="none" stroke="#000000" d="M448.8688,-329.4314C442.4189,-321.1386 434.6555,-311.157 427.5748,-302.0533"/>
<polygon fill="#000000" stroke="#000000" points="430.2236,-299.758 421.3214,-294.0133 424.6981,-304.0556 430.2236,-299.758"/>
</g>
<!-- gae&#45;&gt;goi -->
<g id="edge8" class="edge">
<title>gae&#45;&gt;goi</title>
<path fill="none" stroke="#000000" d="M565.2155,-329.4314C576.547,-320.5632 590.3464,-309.7637 602.6027,-300.1718"/>
<polygon fill="#000000" stroke="#000000" points="605.074,-302.6822 610.7919,-293.7628 600.7598,-297.1697 605.074,-302.6822"/>
</g>
<!-- gae&#45;&gt;Albion -->
<g id="edge6" class="edge">
<title>gae&#45;&gt;Albion</title>
<path fill="none" stroke="#000000" d="M508.282,-329.6171C488.5062,-319.07 463.5181,-305.743 443.3104,-294.9655"/>
<polygon fill="#000000" stroke="#000000" points="444.8687,-291.83 434.398,-290.2123 441.5745,-298.0065 444.8687,-291.83"/>
</g>
<!-- gae&#45;&gt;clt -->
<g id="edge34" class="edge">
<title>gae&#45;&gt;clt</title>
<path fill="none" stroke="#000000" d="M547.5055,-329.4205C562.4479,-282.6904 607.8341,-156.6826 684,-80 696.1327,-67.785 712.176,-57.7195 726.709,-50.1512"/>
<polygon fill="#000000" stroke="#000000" points="728.5877,-53.126 735.9849,-45.5409 725.4722,-46.8575 728.5877,-53.126"/>
</g>
<!-- Munster -->
<g id="node16" class="node">
<title>Munster</title>
<polygon fill="#adff2f" stroke="#000000" points="78.1559,-208.8 15.8441,-208.8 15.8441,-172.8 78.1559,-172.8 78.1559,-208.8"/>
<text text-anchor="middle" x="47" y="-186.6" font-family="Times,serif" font-size="14.00" fill="#000000">Munster</text>
</g>
<!-- Albion&#45;&gt;Munster -->
<!-- eng -->
<g id="node8" class="node">
<title>eng</title>
<polygon fill="#ff3030" stroke="#000000" points="259.1587,-365.6 196.8413,-365.6 196.8413,-329.6 259.1587,-329.6 259.1587,-365.6"/>
<text text-anchor="middle" x="228" y="-343.4" font-family="Times,serif" font-size="14.00" fill="#000000">England</text>
</g>
<!-- eng&#45;&gt;gbr -->
<g id="edge9" class="edge">
<title>eng&#45;&gt;gbr</title>
<path fill="none" stroke="#000000" d="M228,-329.4314C228,-321.731 228,-312.5743 228,-304.0166"/>
<polygon fill="#000000" stroke="#000000" points="231.5001,-304.0132 228,-294.0133 224.5001,-304.0133 231.5001,-304.0132"/>
</g>
<!-- Tyrone -->
<g id="node9" class="node">
<title>Tyrone</title>
<polygon fill="#adff2f" stroke="#000000" points="546.4294,-208.8 489.5706,-208.8 489.5706,-172.8 546.4294,-172.8 546.4294,-208.8"/>
<text text-anchor="middle" x="518" y="-186.6" font-family="Times,serif" font-size="14.00" fill="#000000">Tyrone</text>
</g>
<!-- Ireland -->
<g id="node10" class="node">
<title>Ireland</title>
<polygon fill="#adff2f" stroke="#000000" points="355.6422,-124 300.3578,-124 300.3578,-88 355.6422,-88 355.6422,-124"/>
<text text-anchor="middle" x="328" y="-101.8" font-family="Times,serif" font-size="14.00" fill="#000000">Ireland</text>
</g>
<!-- Tyrone&#45;&gt;Ireland -->
<g id="edge10" class="edge">
<title>Tyrone&#45;&gt;Ireland</title>
<path fill="none" stroke="#000000" d="M493.8599,-172.5811C489.6806,-169.7953 485.2955,-167.0896 481,-164.8 443.2719,-144.6896 397.1304,-127.9318 365.4453,-117.5179"/>
<polygon fill="#000000" stroke="#000000" points="366.2867,-114.1115 355.6948,-114.3634 364.132,-120.7717 366.2867,-114.1115"/>
</g>
<!-- Ireland&#45;&gt;clt -->
<g id="edge29" class="edge">
<title>Ireland&#45;&gt;clt</title>
<path fill="none" stroke="#000000" d="M355.937,-101.3865C431.5345,-88.9026 640.1929,-54.4452 726.1934,-40.2433"/>
<polygon fill="#000000" stroke="#000000" points="726.9996,-43.6577 736.2957,-38.575 725.859,-36.7512 726.9996,-43.6577"/>
</g>
<!-- Ulster -->
<g id="node11" class="node">
<title>Ulster</title>
<polygon fill="#adff2f" stroke="#000000" points="472,-208.8 418,-208.8 418,-172.8 472,-172.8 472,-208.8"/>
<text text-anchor="middle" x="445" y="-186.6" font-family="Times,serif" font-size="14.00" fill="#000000">Ulster</text>
</g>
<!-- Ulster&#45;&gt;Ireland -->
<g id="edge11" class="edge">
<title>Ulster&#45;&gt;Ireland</title>
<path fill="none" stroke="#000000" d="M419.9006,-172.6083C402.7816,-160.2007 379.924,-143.6338 361.2877,-130.1265"/>
<polygon fill="#000000" stroke="#000000" points="363.2089,-127.1963 353.0579,-124.1616 359.1009,-132.8642 363.2089,-127.1963"/>
</g>
<!-- Kildare -->
<g id="node12" class="node">
<title>Kildare</title>
<polygon fill="#adff2f" stroke="#000000" points="399.9776,-208.8 342.0224,-208.8 342.0224,-172.8 399.9776,-172.8 399.9776,-208.8"/>
<text text-anchor="middle" x="371" y="-186.6" font-family="Times,serif" font-size="14.00" fill="#000000">Kildare</text>
</g>
<!-- Kildare&#45;&gt;Ireland -->
<g id="edge12" class="edge">
<title>Kildare&#45;&gt;Ireland</title>
<path fill="none" stroke="#000000" d="M361.6696,-172.3997C355.8828,-160.9874 348.3421,-146.1165 341.8642,-133.3416"/>
<polygon fill="#000000" stroke="#000000" points="344.8086,-131.4091 337.1644,-124.0731 338.5654,-134.5749 344.8086,-131.4091"/>
</g>
<!-- Thormond -->
<g id="node13" class="node">
<title>Thormond</title>
<polygon fill="#adff2f" stroke="#000000" points="323.6039,-208.8 248.3961,-208.8 248.3961,-172.8 323.6039,-172.8 323.6039,-208.8"/>
<text text-anchor="middle" x="286" y="-186.6" font-family="Times,serif" font-size="14.00" fill="#000000">Thormond</text>
</g>
<!-- Thormond&#45;&gt;Ireland -->
<g id="edge13" class="edge">
<title>Thormond&#45;&gt;Ireland</title>
<path fill="none" stroke="#000000" d="M295.1134,-172.3997C300.7657,-160.9874 308.131,-146.1165 314.4582,-133.3416"/>
<polygon fill="#000000" stroke="#000000" points="317.7468,-134.5876 319.0487,-124.0731 311.474,-131.4808 317.7468,-134.5876"/>
</g>
<!-- Ormond -->
<g id="node14" class="node">
<title>Ormond</title>
<polygon fill="#adff2f" stroke="#000000" points="230.1587,-208.8 167.8413,-208.8 167.8413,-172.8 230.1587,-172.8 230.1587,-208.8"/>
<text text-anchor="middle" x="199" y="-186.6" font-family="Times,serif" font-size="14.00" fill="#000000">Ormond</text>
</g>
<!-- Ormond&#45;&gt;Ireland -->
<g id="edge14" class="edge">
<title>Ormond&#45;&gt;Ireland</title>
<path fill="none" stroke="#000000" d="M226.6737,-172.6083C245.7185,-160.0889 271.2051,-143.335 291.8524,-129.7622"/>
<polygon fill="#000000" stroke="#000000" points="293.9384,-132.5794 300.372,-124.1616 290.0932,-126.7301 293.9384,-132.5794"/>
</g>
<!-- Offaly -->
<g id="node15" class="node">
<title>Offaly</title>
<polygon fill="#adff2f" stroke="#000000" points="150,-208.8 96,-208.8 96,-172.8 150,-172.8 150,-208.8"/>
<text text-anchor="middle" x="123" y="-186.6" font-family="Times,serif" font-size="14.00" fill="#000000">Offaly</text>
</g>
<!-- Offaly&#45;&gt;Ireland -->
<g id="edge15" class="edge">
<title>Offaly&#45;&gt;Ireland</title>
<path fill="none" stroke="#000000" d="M145.9902,-172.7086C150.1857,-169.8438 154.6238,-167.0792 159,-164.8 201.882,-142.4666 255.0875,-125.5556 290.2143,-115.7284"/>
<polygon fill="#000000" stroke="#000000" points="291.3433,-119.0481 300.0609,-113.0269 289.4912,-112.2975 291.3433,-119.0481"/>
</g>
<!-- Munster&#45;&gt;Ireland -->
<g id="edge16" class="edge">
<title>Munster&#45;&gt;Ireland</title>
<path fill="none" stroke="#000000" d="M72.1022,-172.6763C76.8925,-169.7465 81.9819,-166.9682 87,-164.8 155.5086,-135.1997 241.694,-118.7306 290.2358,-111.1783"/>
<polygon fill="#000000" stroke="#000000" points="290.9267,-114.6137 300.2912,-109.6582 289.8803,-107.6923 290.9267,-114.6137"/>
</g>
<!-- Connacht -->
<g id="node17" class="node">
<title>Connacht</title>
<polygon fill="#caff70" stroke="#000000" points="669.6572,-365.6 600.3428,-365.6 600.3428,-329.6 669.6572,-329.6 669.6572,-365.6"/>
<text text-anchor="middle" x="635" y="-343.4" font-family="Times,serif" font-size="14.00" fill="#000000">Connacht</text>
</g>
<!-- Connacht&#45;&gt;goi -->
<g id="edge17" class="edge">
<title>Connacht&#45;&gt;goi</title>
<path fill="none" stroke="#000000" d="M634.7477,-329.4314C634.6407,-321.731 634.5135,-312.5743 634.3947,-304.0166"/>
<polygon fill="#000000" stroke="#000000" points="637.8944,-303.9637 634.2557,-294.0133 630.8951,-304.0609 637.8944,-303.9637"/>
</g>
<!-- Cork -->
<g id="node18" class="node">
<title>Cork</title>
<polygon fill="#dedede" stroke="#000000" points="1131,-442.4 1077,-442.4 1077,-406.4 1131,-406.4 1131,-442.4"/>
<text text-anchor="middle" x="1104" y="-420.2" font-family="Times,serif" font-size="14.00" fill="#000000">Cork</text>
</g>
<!-- Finngail -->
<g id="node19" class="node">
<title>Finngail</title>
<polygon fill="#dedede" stroke="#000000" points="1053.1699,-365.6 990.8301,-365.6 990.8301,-329.6 1053.1699,-329.6 1053.1699,-365.6"/>
<text text-anchor="middle" x="1022" y="-343.4" font-family="Times,serif" font-size="14.00" fill="#000000">Finngail</text>
</g>
<!-- Cork&#45;&gt;Finngail -->
<g id="edge18" class="edge">
<title>Cork&#45;&gt;Finngail</title>
<path fill="none" stroke="#000000" d="M1084.5671,-406.1995C1073.8445,-396.1568 1060.3705,-383.5372 1048.6752,-372.5836"/>
<polygon fill="#000000" stroke="#000000" points="1050.9847,-369.9512 1041.2934,-365.6699 1046.1995,-375.0603 1050.9847,-369.9512"/>
</g>
<!-- Dubgaill and Finngail -->
<g id="node22" class="node">
<title>Dubgaill and Finngail</title>
<polygon fill="#dedede" stroke="#000000" points="1091.3767,-293.6 952.6233,-293.6 952.6233,-257.6 1091.3767,-257.6 1091.3767,-293.6"/>
<text text-anchor="middle" x="1022" y="-271.4" font-family="Times,serif" font-size="14.00" fill="#000000">Dubgaill and Finngail</text>
</g>
<!-- Finngail&#45;&gt;Dubgaill and Finngail -->
<g id="edge21" class="edge">
<title>Finngail&#45;&gt;Dubgaill and Finngail</title>
<path fill="none" stroke="#000000" d="M1022,-329.4314C1022,-321.731 1022,-312.5743 1022,-304.0166"/>
<polygon fill="#000000" stroke="#000000" points="1025.5001,-304.0132 1022,-294.0133 1018.5001,-304.0133 1025.5001,-304.0132"/>
</g>
<!-- Waterford -->
<g id="node20" class="node">
<title>Waterford</title>
<polygon fill="#dedede" stroke="#000000" points="1058.5178,-442.4 985.4822,-442.4 985.4822,-406.4 1058.5178,-406.4 1058.5178,-442.4"/>
<text text-anchor="middle" x="1022" y="-420.2" font-family="Times,serif" font-size="14.00" fill="#000000">Waterford</text>
</g>
<!-- Waterford&#45;&gt;Finngail -->
<g id="edge19" class="edge">
<title>Waterford&#45;&gt;Finngail</title>
<path fill="none" stroke="#000000" d="M1022,-406.1995C1022,-397.1132 1022,-385.9176 1022,-375.7549"/>
<polygon fill="#000000" stroke="#000000" points="1025.5001,-375.6698 1022,-365.6699 1018.5001,-375.6699 1025.5001,-375.6698"/>
</g>
<!-- Dublin -->
<g id="node21" class="node">
<title>Dublin</title>
<polygon fill="#dedede" stroke="#000000" points="967.3879,-442.4 912.6121,-442.4 912.6121,-406.4 967.3879,-406.4 967.3879,-442.4"/>
<text text-anchor="middle" x="940" y="-420.2" font-family="Times,serif" font-size="14.00" fill="#000000">Dublin</text>
</g>
<!-- Dublin&#45;&gt;Finngail -->
<g id="edge20" class="edge">
<title>Dublin&#45;&gt;Finngail</title>
<path fill="none" stroke="#000000" d="M959.4329,-406.1995C970.1555,-396.1568 983.6295,-383.5372 995.3248,-372.5836"/>
<polygon fill="#000000" stroke="#000000" points="997.8005,-375.0603 1002.7066,-365.6699 993.0153,-369.9512 997.8005,-375.0603"/>
</g>
<!-- Scandinavia -->
<g id="node23" class="node">
<title>Scandinavia</title>
<polygon fill="#dedede" stroke="#000000" points="996.4233,-208.8 911.5767,-208.8 911.5767,-172.8 996.4233,-172.8 996.4233,-208.8"/>
<text text-anchor="middle" x="954" y="-186.6" font-family="Times,serif" font-size="14.00" fill="#000000">Scandinavia</text>
</g>
<!-- Dubgaill and Finngail&#45;&gt;Scandinavia -->
<g id="edge22" class="edge">
<title>Dubgaill and Finngail&#45;&gt;Scandinavia</title>
<path fill="none" stroke="#000000" d="M1007.245,-257.1997C997.8245,-245.4518 985.465,-230.0387 975.0254,-217.02"/>
<polygon fill="#000000" stroke="#000000" points="977.4791,-214.485 968.4926,-208.8731 972.018,-218.8642 977.4791,-214.485"/>
</g>
<!-- North Sea Empire -->
<g id="node24" class="node">
<title>North Sea Empire</title>
<polygon fill="#dedede" stroke="#000000" points="1131.5786,-208.8 1014.4214,-208.8 1014.4214,-172.8 1131.5786,-172.8 1131.5786,-208.8"/>
<text text-anchor="middle" x="1073" y="-186.6" font-family="Times,serif" font-size="14.00" fill="#000000">North Sea Empire</text>
</g>
<!-- Dubgaill and Finngail&#45;&gt;North Sea Empire -->
<g id="edge23" class="edge">
<title>Dubgaill and Finngail&#45;&gt;North Sea Empire</title>
<path fill="none" stroke="#000000" d="M1033.0662,-257.1997C1039.997,-245.6756 1049.0489,-230.6246 1056.782,-217.7665"/>
<polygon fill="#000000" stroke="#000000" points="1059.976,-219.2466 1062.1306,-208.8731 1053.9773,-215.6388 1059.976,-219.2466"/>
</g>
<!-- Wales -->
<g id="node25" class="node">
<title>Wales</title>
<polygon fill="#ee7621" stroke="#000000" points="990,-124 936,-124 936,-88 990,-88 990,-124"/>
<text text-anchor="middle" x="963" y="-101.8" font-family="Times,serif" font-size="14.00" fill="#000000">Wales</text>
</g>
<!-- Prydain -->
<g id="node26" class="node">
<title>Prydain</title>
<polygon fill="#ee7621" stroke="#000000" points="993.5501,-52 934.4499,-52 934.4499,-16 993.5501,-16 993.5501,-52"/>
<text text-anchor="middle" x="964" y="-29.8" font-family="Times,serif" font-size="14.00" fill="#000000">Prydain</text>
</g>
<!-- Wales&#45;&gt;Prydain -->
<g id="edge24" class="edge">
<title>Wales&#45;&gt;Prydain</title>
<path fill="none" stroke="#000000" d="M963.2523,-87.8314C963.3593,-80.131 963.4865,-70.9743 963.6053,-62.4166"/>
<polygon fill="#000000" stroke="#000000" points="967.1049,-62.4609 963.7443,-52.4133 960.1056,-62.3637 967.1049,-62.4609"/>
</g>
<!-- Wales&#45;&gt;clt -->
<g id="edge31" class="edge">
<title>Wales&#45;&gt;clt</title>
<path fill="none" stroke="#000000" d="M936.7023,-87.8094C931.9367,-84.9556 926.9162,-82.2204 922,-80 882.5296,-62.173 834.4012,-49.3288 801.7093,-41.8172"/>
<polygon fill="#000000" stroke="#000000" points="802.1914,-38.3385 791.668,-39.5663 800.6602,-45.169 802.1914,-38.3385"/>
</g>
<!-- Cornwall -->
<g id="node27" class="node">
<title>Cornwall</title>
<polygon fill="#ff7f50" stroke="#000000" points="798.0997,-208.8 729.9003,-208.8 729.9003,-172.8 798.0997,-172.8 798.0997,-208.8"/>
<text text-anchor="middle" x="764" y="-186.6" font-family="Times,serif" font-size="14.00" fill="#000000">Cornwall</text>
</g>
<!-- Dumnonia -->
<g id="node28" class="node">
<title>Dumnonia</title>
<polygon fill="#ff7f50" stroke="#000000" points="801.6025,-124 726.3975,-124 726.3975,-88 801.6025,-88 801.6025,-124"/>
<text text-anchor="middle" x="764" y="-101.8" font-family="Times,serif" font-size="14.00" fill="#000000">Dumnonia</text>
</g>
<!-- Cornwall&#45;&gt;Dumnonia -->
<g id="edge25" class="edge">
<title>Cornwall&#45;&gt;Dumnonia</title>
<path fill="none" stroke="#000000" d="M764,-172.3997C764,-161.2112 764,-146.6983 764,-134.0954"/>
<polygon fill="#000000" stroke="#000000" points="767.5001,-134.0731 764,-124.0731 760.5001,-134.0731 767.5001,-134.0731"/>
</g>
<!-- Dumnonia&#45;&gt;clt -->
<g id="edge30" class="edge">
<title>Dumnonia&#45;&gt;clt</title>
<path fill="none" stroke="#000000" d="M764,-87.8314C764,-80.131 764,-70.9743 764,-62.4166"/>
<polygon fill="#000000" stroke="#000000" points="767.5001,-62.4132 764,-52.4133 760.5001,-62.4133 767.5001,-62.4132"/>
</g>
<!-- Brittany -->
<g id="node29" class="node">
<title>Brittany</title>
<polygon fill="#deb887" stroke="#000000" points="887.8837,-208.8 826.1163,-208.8 826.1163,-172.8 887.8837,-172.8 887.8837,-208.8"/>
<text text-anchor="middle" x="857" y="-186.6" font-family="Times,serif" font-size="14.00" fill="#000000">Brittany</text>
</g>
<!-- Gallia -->
<g id="node30" class="node">
<title>Gallia</title>
<polygon fill="#deb887" stroke="#000000" points="880,-124 826,-124 826,-88 880,-88 880,-124"/>
<text text-anchor="middle" x="853" y="-101.8" font-family="Times,serif" font-size="14.00" fill="#000000">Gallia</text>
</g>
<!-- Brittany&#45;&gt;Gallia -->
<g id="edge26" class="edge">
<title>Brittany&#45;&gt;Gallia</title>
<path fill="none" stroke="#000000" d="M856.1321,-172.3997C855.6043,-161.2112 854.9197,-146.6983 854.3253,-134.0954"/>
<polygon fill="#000000" stroke="#000000" points="857.8199,-133.8971 853.8525,-124.0731 850.8277,-134.2269 857.8199,-133.8971"/>
</g>
<!-- Brittany&#45;&gt;clt -->
<g id="edge32" class="edge">
<title>Brittany&#45;&gt;clt</title>
<path fill="none" stroke="#000000" d="M878.8453,-172.504C882.986,-167.8497 886.7289,-162.5267 889,-156.8 901.5831,-125.0707 908.5284,-107.9951 889,-80 878.689,-65.2186 834.5916,-51.3834 801.6747,-42.8223"/>
<polygon fill="#000000" stroke="#000000" points="802.421,-39.4008 791.8678,-40.3395 800.703,-46.1867 802.421,-39.4008"/>
</g>
<!-- Gallia&#45;&gt;clt -->
<g id="edge33" class="edge">
<title>Gallia&#45;&gt;clt</title>
<path fill="none" stroke="#000000" d="M830.5415,-87.8314C819.5795,-78.9632 806.2301,-68.1637 794.3735,-58.5718"/>
<polygon fill="#000000" stroke="#000000" points="796.4271,-55.7313 786.4513,-52.1628 792.0245,-61.1734 796.4271,-55.7313"/>
</g>
</g>
</svg>
