<?xml version="1.0" encoding="UTF-8" standalone="no"?>
<!DOCTYPE svg PUBLIC "-//W3C//DTD SVG 1.1//EN"
 "http://www.w3.org/Graphics/SVG/1.1/DTD/svg11.dtd">
<!-- Generated by graphviz version 2.40.1 (20161225.0304)
 -->
<!-- Title: Formables Pages: 1 -->
<svg width="1179pt" height="488pt"
 viewBox="0.00 0.00 1179.00 488.00" xmlns="http://www.w3.org/2000/svg" xmlns:xlink="http://www.w3.org/1999/xlink">
<g id="graph0" class="graph" transform="scale(1 1) rotate(0) translate(4 484)">
<title>Formables</title>
<polygon fill="#ffffff" stroke="transparent" points="-4,4 -4,-484 1175,-484 1175,4 -4,4"/>
<g id="clust1" class="cluster">
<title>cluster_0</title>
<polygon fill="none" stroke="#ffff00" points="531,-241.6 531,-472 837,-472 837,-241.6 531,-241.6"/>
<text text-anchor="middle" x="684" y="-455.4" font-family="Times,serif" font-size="14.00" fill="#000000">Scotland</text>
</g>
<g id="clust2" class="cluster">
<title>cluster_1</title>
<polygon fill="none" stroke="#000000" points="439,-241.6 439,-395.2 523,-395.2 523,-241.6 439,-241.6"/>
<text text-anchor="middle" x="481" y="-378.6" font-family="Times,serif" font-size="14.00" fill="#000000">England</text>
</g>
<g id="clust3" class="cluster">
<title>cluster_2</title>
<polygon fill="none" stroke="#000000" points="252,-80 252,-233.6 799,-233.6 799,-80 252,-80"/>
<text text-anchor="middle" x="525.5" y="-217" font-family="Times,serif" font-size="14.00" fill="#000000">Irish Minors</text>
</g>
<g id="clust4" class="cluster">
<title>cluster_3</title>
<polygon fill="none" stroke="#000000" points="878,-241.6 878,-395.2 964,-395.2 964,-241.6 878,-241.6"/>
<text text-anchor="middle" x="921" y="-378.6" font-family="Times,serif" font-size="14.00" fill="#000000">Connacht</text>
</g>
<g id="clust5" class="cluster">
<title>cluster_4</title>
<polygon fill="none" stroke="#000000" points="8,-8 8,-318.4 244,-318.4 244,-8 8,-8"/>
<text text-anchor="middle" x="126" y="-301.8" font-family="Times,serif" font-size="14.00" fill="#000000">Norse&#45;Gaelic Minors</text>
</g>
<g id="clust6" class="cluster">
<title>cluster_5</title>
<polygon fill="none" stroke="#000000" points="1087,-8 1087,-156.8 1163,-156.8 1163,-8 1087,-8"/>
<text text-anchor="middle" x="1125" y="-140.2" font-family="Times,serif" font-size="14.00" fill="#000000">Wales</text>
</g>
<g id="clust7" class="cluster">
<title>cluster_6</title>
<polygon fill="none" stroke="#000000" points="877,-80 877,-233.6 969,-233.6 969,-80 877,-80"/>
<text text-anchor="middle" x="923" y="-217" font-family="Times,serif" font-size="14.00" fill="#000000">Cornwall</text>
</g>
<g id="clust8" class="cluster">
<title>cluster_7</title>
<polygon fill="none" stroke="#000000" points="1001,-80 1001,-233.6 1079,-233.6 1079,-80 1001,-80"/>
<text text-anchor="middle" x="1040" y="-217" font-family="Times,serif" font-size="14.00" fill="#000000">Brittany</text>
</g>
<!-- gbr -->
<g id="node1" class="node">
<title>gbr</title>
<defs>
<linearGradient id="l_0" gradientUnits="userSpaceOnUse" x1="446.9017" y1="-267.6" x2="515.0983" y2="-267.6" >
<stop offset="0.499" style="stop-color:#ff3030;stop-opacity:1.;"/>
<stop offset="0.500" style="stop-color:#ffff00;stop-opacity:1.;"/>
</linearGradient>
</defs>
<polygon fill="url(#l_0)" stroke="#000000" points="515.0983,-285.6 446.9017,-285.6 446.9017,-249.6 515.0983,-249.6 515.0983,-285.6"/>
<text text-anchor="middle" x="481" y="-263.4" font-family="Times,serif" font-size="14.00" fill="#000000">Britannia</text>
</g>
<!-- Munster -->
<g id="node16" class="node">
<title>Munster</title>
<polygon fill="#adff2f" stroke="#000000" points="639.1559,-200.8 576.8441,-200.8 576.8441,-164.8 639.1559,-164.8 639.1559,-200.8"/>
<text text-anchor="middle" x="608" y="-178.6" font-family="Times,serif" font-size="14.00" fill="#000000">Munster</text>
</g>
<!-- gbr&#45;&gt;Munster -->
<!-- goi -->
<g id="node2" class="node">
<title>goi</title>
<defs>
<linearGradient id="l_1" gradientUnits="userSpaceOnUse" x1="888.7921" y1="-267.6" x2="953.2079" y2="-267.6" >
<stop offset="0.499" style="stop-color:#ffff00;stop-opacity:1.;"/>
<stop offset="0.500" style="stop-color:#caff70;stop-opacity:1.;"/>
</linearGradient>
</defs>
<polygon fill="url(#l_1)" stroke="#000000" points="953.2079,-285.6 888.7921,-285.6 888.7921,-249.6 953.2079,-249.6 953.2079,-285.6"/>
<text text-anchor="middle" x="921" y="-263.4" font-family="Times,serif" font-size="14.00" fill="#000000">Goidelia</text>
</g>
<!-- Cornwall -->
<g id="node27" class="node">
<title>Cornwall</title>
<polygon fill="#ff7f50" stroke="#000000" points="956.0997,-200.8 887.9003,-200.8 887.9003,-164.8 956.0997,-164.8 956.0997,-200.8"/>
<text text-anchor="middle" x="922" y="-178.6" font-family="Times,serif" font-size="14.00" fill="#000000">Cornwall</text>
</g>
<!-- goi&#45;&gt;Cornwall -->
<!-- Paths -->
<g id="node3" class="node">
<title>Paths</title>
<polygon fill="#ffff00" stroke="#000000" points="787.493,-439.2 722.507,-439.2 722.507,-403.2 787.493,-403.2 787.493,-439.2"/>
<text text-anchor="middle" x="755" y="-417" font-family="Times,serif" font-size="14.00" fill="#000000">Scotland</text>
</g>
<!-- sco -->
<g id="node4" class="node">
<title>sco</title>
<polygon fill="#ffff00" stroke="#000000" points="670.9869,-362.4 539.0131,-362.4 539.0131,-326.4 670.9869,-326.4 670.9869,-362.4"/>
<text text-anchor="middle" x="605" y="-340.2" font-family="Times,serif" font-size="14.00" fill="#000000">Anglophile Scotland</text>
</g>
<!-- Paths&#45;&gt;sco -->
<g id="edge1" class="edge">
<title>Paths&#45;&gt;sco</title>
<path fill="none" stroke="#000000" d="M722.496,-411.9835C709.0198,-407.642 693.4296,-401.9296 680,-395.2 665.0062,-387.6866 649.4898,-377.6177 636.4879,-368.4262"/>
<polygon fill="#000000" stroke="#000000" points="638.4957,-365.559 628.3376,-362.5484 634.4012,-371.2366 638.4957,-365.559"/>
</g>
<!-- alba -->
<g id="node5" class="node">
<title>alba</title>
<polygon fill="#ffff00" stroke="#000000" points="743,-362.4 689,-362.4 689,-326.4 743,-326.4 743,-362.4"/>
<text text-anchor="middle" x="716" y="-340.2" font-family="Times,serif" font-size="14.00" fill="#000000">Alba</text>
</g>
<!-- Paths&#45;&gt;alba -->
<g id="edge2" class="edge">
<title>Paths&#45;&gt;alba</title>
<path fill="none" stroke="#000000" d="M745.7575,-402.9995C740.9977,-393.6263 735.098,-382.0084 729.8101,-371.5953"/>
<polygon fill="#000000" stroke="#000000" points="732.8246,-369.8014 725.1761,-362.4699 726.5833,-372.9709 732.8246,-369.8014"/>
</g>
<!-- gae -->
<g id="node6" class="node">
<title>gae</title>
<polygon fill="#ffff00" stroke="#000000" points="828.8177,-362.4 761.1823,-362.4 761.1823,-326.4 828.8177,-326.4 828.8177,-362.4"/>
<text text-anchor="middle" x="795" y="-340.2" font-family="Times,serif" font-size="14.00" fill="#000000">Gaeldom</text>
</g>
<!-- Paths&#45;&gt;gae -->
<g id="edge3" class="edge">
<title>Paths&#45;&gt;gae</title>
<path fill="none" stroke="#000000" d="M764.4794,-402.9995C769.3613,-393.6263 775.4123,-382.0084 780.8358,-371.5953"/>
<polygon fill="#000000" stroke="#000000" points="784.0734,-372.9558 785.5886,-362.4699 777.865,-369.7222 784.0734,-372.9558"/>
</g>
<!-- clt -->
<g id="node31" class="node">
<title>clt</title>
<polygon fill="#7fff00" stroke="#000000" points="917.6533,-52 862.3467,-52 862.3467,-16 917.6533,-16 917.6533,-52"/>
<text text-anchor="middle" x="890" y="-29.8" font-family="Times,serif" font-size="14.00" fill="#000000">Celtica</text>
</g>
<!-- Paths&#45;&gt;clt -->
<g id="edge30" class="edge">
<title>Paths&#45;&gt;clt</title>
<path fill="none" stroke="#000000" d="M787.7722,-414.6646C807.9793,-409.9544 831.2771,-403.0609 838,-395.2 875.2659,-351.6258 857,-324.9364 857,-267.6 857,-267.6 857,-267.6 857,-182.8 857,-136.561 861.3722,-124.7531 873,-80 874.5636,-73.9819 876.6186,-67.6538 878.7574,-61.6824"/>
<polygon fill="#000000" stroke="#000000" points="882.1217,-62.6794 882.364,-52.0873 875.5693,-60.2165 882.1217,-62.6794"/>
</g>
<!-- sco&#45;&gt;gbr -->
<g id="edge7" class="edge">
<title>sco&#45;&gt;gbr</title>
<path fill="none" stroke="#000000" d="M541.5268,-326.399C536.4543,-324.0228 531.542,-321.3651 527,-318.4 516.9312,-311.827 507.6433,-302.5267 500.0888,-293.6767"/>
<polygon fill="#000000" stroke="#000000" points="502.6866,-291.3236 493.6657,-285.7671 497.2526,-295.7363 502.6866,-291.3236"/>
</g>
<!-- Albion -->
<g id="node7" class="node">
<title>Albion</title>
<polygon fill="#ffff00" stroke="#000000" points="727.3879,-285.6 672.6121,-285.6 672.6121,-249.6 727.3879,-249.6 727.3879,-285.6"/>
<text text-anchor="middle" x="700" y="-263.4" font-family="Times,serif" font-size="14.00" fill="#000000">Albion</text>
</g>
<!-- sco&#45;&gt;Albion -->
<g id="edge5" class="edge">
<title>sco&#45;&gt;Albion</title>
<path fill="none" stroke="#000000" d="M627.5137,-326.1995C640.1729,-315.9655 656.1422,-303.0556 669.8678,-291.9595"/>
<polygon fill="#000000" stroke="#000000" points="672.0717,-294.6786 677.6479,-285.6699 667.6709,-289.2349 672.0717,-294.6786"/>
</g>
<!-- alba&#45;&gt;Albion -->
<g id="edge4" class="edge">
<title>alba&#45;&gt;Albion</title>
<path fill="none" stroke="#000000" d="M712.2082,-326.1995C710.3153,-317.1132 707.9828,-305.9176 705.8656,-295.7549"/>
<polygon fill="#000000" stroke="#000000" points="709.2306,-294.7458 703.7646,-285.6699 702.3777,-296.1736 709.2306,-294.7458"/>
</g>
<!-- gae&#45;&gt;goi -->
<g id="edge8" class="edge">
<title>gae&#45;&gt;goi</title>
<path fill="none" stroke="#000000" d="M827.7875,-326.1406C832.2485,-323.5768 836.7514,-320.9473 841,-318.4 855.3531,-309.7943 870.9303,-300.0072 884.4929,-291.3361"/>
<polygon fill="#000000" stroke="#000000" points="886.5569,-294.1703 893.0814,-285.8227 882.7753,-288.2796 886.5569,-294.1703"/>
</g>
<!-- gae&#45;&gt;Albion -->
<g id="edge6" class="edge">
<title>gae&#45;&gt;Albion</title>
<path fill="none" stroke="#000000" d="M772.4863,-326.1995C759.8271,-315.9655 743.8578,-303.0556 730.1322,-291.9595"/>
<polygon fill="#000000" stroke="#000000" points="732.3291,-289.2349 722.3521,-285.6699 727.9283,-294.6786 732.3291,-289.2349"/>
</g>
<!-- gae&#45;&gt;clt -->
<g id="edge36" class="edge">
<title>gae&#45;&gt;clt</title>
<path fill="none" stroke="#000000" d="M796.8683,-326.0487C802.4483,-273.4685 820.0382,-123.2708 843,-80 846.9136,-72.625 852.4262,-65.71 858.3051,-59.5939"/>
<polygon fill="#000000" stroke="#000000" points="861.095,-61.7652 865.8547,-52.2997 856.2311,-56.731 861.095,-61.7652"/>
</g>
<!-- Offaly -->
<g id="node15" class="node">
<title>Offaly</title>
<polygon fill="#adff2f" stroke="#000000" points="711,-200.8 657,-200.8 657,-164.8 711,-164.8 711,-200.8"/>
<text text-anchor="middle" x="684" y="-178.6" font-family="Times,serif" font-size="14.00" fill="#000000">Offaly</text>
</g>
<!-- Albion&#45;&gt;Offaly -->
<!-- eng -->
<g id="node8" class="node">
<title>eng</title>
<polygon fill="#ff3030" stroke="#000000" points="512.1587,-362.4 449.8413,-362.4 449.8413,-326.4 512.1587,-326.4 512.1587,-362.4"/>
<text text-anchor="middle" x="481" y="-340.2" font-family="Times,serif" font-size="14.00" fill="#000000">England</text>
</g>
<!-- eng&#45;&gt;gbr -->
<g id="edge9" class="edge">
<title>eng&#45;&gt;gbr</title>
<path fill="none" stroke="#000000" d="M481,-326.1995C481,-317.1132 481,-305.9176 481,-295.7549"/>
<polygon fill="#000000" stroke="#000000" points="484.5001,-295.6698 481,-285.6699 477.5001,-295.6699 484.5001,-295.6698"/>
</g>
<!-- Tyrone -->
<g id="node9" class="node">
<title>Tyrone</title>
<polygon fill="#adff2f" stroke="#000000" points="558.4294,-200.8 501.5706,-200.8 501.5706,-164.8 558.4294,-164.8 558.4294,-200.8"/>
<text text-anchor="middle" x="530" y="-178.6" font-family="Times,serif" font-size="14.00" fill="#000000">Tyrone</text>
</g>
<!-- Ireland -->
<g id="node10" class="node">
<title>Ireland</title>
<polygon fill="#adff2f" stroke="#000000" points="596.6422,-124 541.3578,-124 541.3578,-88 596.6422,-88 596.6422,-124"/>
<text text-anchor="middle" x="569" y="-101.8" font-family="Times,serif" font-size="14.00" fill="#000000">Ireland</text>
</g>
<!-- Tyrone&#45;&gt;Ireland -->
<g id="edge10" class="edge">
<title>Tyrone&#45;&gt;Ireland</title>
<path fill="none" stroke="#000000" d="M539.2425,-164.5995C544.0023,-155.2263 549.902,-143.6084 555.1899,-133.1953"/>
<polygon fill="#000000" stroke="#000000" points="558.4167,-134.5709 559.8239,-124.0699 552.1754,-131.4014 558.4167,-134.5709"/>
</g>
<!-- Ireland&#45;&gt;clt -->
<g id="edge31" class="edge">
<title>Ireland&#45;&gt;clt</title>
<path fill="none" stroke="#000000" d="M596.6461,-99.799C654.2431,-86.88 787.1489,-57.0694 852.4316,-42.4266"/>
<polygon fill="#000000" stroke="#000000" points="853.315,-45.8154 862.3066,-40.2116 851.783,-38.9852 853.315,-45.8154"/>
</g>
<!-- Ulster -->
<g id="node11" class="node">
<title>Ulster</title>
<polygon fill="#adff2f" stroke="#000000" points="484,-200.8 430,-200.8 430,-164.8 484,-164.8 484,-200.8"/>
<text text-anchor="middle" x="457" y="-178.6" font-family="Times,serif" font-size="14.00" fill="#000000">Ulster</text>
</g>
<!-- Ulster&#45;&gt;Ireland -->
<g id="edge11" class="edge">
<title>Ulster&#45;&gt;Ireland</title>
<path fill="none" stroke="#000000" d="M483.259,-164.7938C498.4552,-154.3736 517.7675,-141.1309 534.2147,-129.8528"/>
<polygon fill="#000000" stroke="#000000" points="536.2495,-132.7014 542.5174,-124.1595 532.2908,-126.9283 536.2495,-132.7014"/>
</g>
<!-- Kildare -->
<g id="node12" class="node">
<title>Kildare</title>
<polygon fill="#adff2f" stroke="#000000" points="411.9776,-200.8 354.0224,-200.8 354.0224,-164.8 411.9776,-164.8 411.9776,-200.8"/>
<text text-anchor="middle" x="383" y="-178.6" font-family="Times,serif" font-size="14.00" fill="#000000">Kildare</text>
</g>
<!-- Kildare&#45;&gt;Ireland -->
<g id="edge12" class="edge">
<title>Kildare&#45;&gt;Ireland</title>
<path fill="none" stroke="#000000" d="M412.3731,-168.6582C415.2766,-167.329 418.1885,-166.0229 421,-164.8 458.243,-148.6009 501.4751,-131.6319 531.5606,-120.1103"/>
<polygon fill="#000000" stroke="#000000" points="533.1363,-123.2553 541.2319,-116.4207 530.6412,-116.715 533.1363,-123.2553"/>
</g>
<!-- Thormond -->
<g id="node13" class="node">
<title>Thormond</title>
<polygon fill="#adff2f" stroke="#000000" points="335.6039,-200.8 260.3961,-200.8 260.3961,-164.8 335.6039,-164.8 335.6039,-200.8"/>
<text text-anchor="middle" x="298" y="-178.6" font-family="Times,serif" font-size="14.00" fill="#000000">Thormond</text>
</g>
<!-- Thormond&#45;&gt;Ireland -->
<g id="edge13" class="edge">
<title>Thormond&#45;&gt;Ireland</title>
<path fill="none" stroke="#000000" d="M335.5816,-167.9929C338.7526,-166.8699 341.9224,-165.79 345,-164.8 409.6262,-144.0109 486.4472,-125.066 531.2628,-114.5762"/>
<polygon fill="#000000" stroke="#000000" points="532.1843,-117.9554 541.1321,-112.2819 530.5993,-111.1372 532.1843,-117.9554"/>
</g>
<!-- Ormond -->
<g id="node14" class="node">
<title>Ormond</title>
<polygon fill="#adff2f" stroke="#000000" points="791.1587,-200.8 728.8413,-200.8 728.8413,-164.8 791.1587,-164.8 791.1587,-200.8"/>
<text text-anchor="middle" x="760" y="-178.6" font-family="Times,serif" font-size="14.00" fill="#000000">Ormond</text>
</g>
<!-- Ormond&#45;&gt;Ireland -->
<g id="edge14" class="edge">
<title>Ormond&#45;&gt;Ireland</title>
<path fill="none" stroke="#000000" d="M728.6239,-168.497C725.7168,-167.2274 722.809,-165.978 720,-164.8 681.4904,-148.65 636.8726,-131.4599 606.1768,-119.8655"/>
<polygon fill="#000000" stroke="#000000" points="607.3171,-116.555 596.7252,-116.3061 604.8501,-123.1059 607.3171,-116.555"/>
</g>
<!-- Offaly&#45;&gt;Ireland -->
<g id="edge15" class="edge">
<title>Offaly&#45;&gt;Ireland</title>
<path fill="none" stroke="#000000" d="M657.0376,-164.7938C641.4344,-154.3736 621.6048,-141.1309 604.717,-129.8528"/>
<polygon fill="#000000" stroke="#000000" points="606.4518,-126.8026 596.1919,-124.1595 602.5642,-132.6238 606.4518,-126.8026"/>
</g>
<!-- Munster&#45;&gt;Ireland -->
<g id="edge16" class="edge">
<title>Munster&#45;&gt;Ireland</title>
<path fill="none" stroke="#000000" d="M598.7575,-164.5995C593.9977,-155.2263 588.098,-143.6084 582.8101,-133.1953"/>
<polygon fill="#000000" stroke="#000000" points="585.8246,-131.4014 578.1761,-124.0699 579.5833,-134.5709 585.8246,-131.4014"/>
</g>
<!-- Connacht -->
<g id="node17" class="node">
<title>Connacht</title>
<polygon fill="#caff70" stroke="#000000" points="955.6572,-362.4 886.3428,-362.4 886.3428,-326.4 955.6572,-326.4 955.6572,-362.4"/>
<text text-anchor="middle" x="921" y="-340.2" font-family="Times,serif" font-size="14.00" fill="#000000">Connacht</text>
</g>
<!-- Connacht&#45;&gt;goi -->
<g id="edge17" class="edge">
<title>Connacht&#45;&gt;goi</title>
<path fill="none" stroke="#000000" d="M921,-326.1995C921,-317.1132 921,-305.9176 921,-295.7549"/>
<polygon fill="#000000" stroke="#000000" points="924.5001,-295.6698 921,-285.6699 917.5001,-295.6699 924.5001,-295.6698"/>
</g>
<!-- Cork -->
<g id="node18" class="node">
<title>Cork</title>
<polygon fill="#dedede" stroke="#000000" points="164,-285.6 110,-285.6 110,-249.6 164,-249.6 164,-285.6"/>
<text text-anchor="middle" x="137" y="-263.4" font-family="Times,serif" font-size="14.00" fill="#000000">Cork</text>
</g>
<!-- Finngail -->
<g id="node19" class="node">
<title>Finngail</title>
<polygon fill="#dedede" stroke="#000000" points="183.1699,-200.8 120.8301,-200.8 120.8301,-164.8 183.1699,-164.8 183.1699,-200.8"/>
<text text-anchor="middle" x="152" y="-178.6" font-family="Times,serif" font-size="14.00" fill="#000000">Finngail</text>
</g>
<!-- Cork&#45;&gt;Finngail -->
<g id="edge18" class="edge">
<title>Cork&#45;&gt;Finngail</title>
<path fill="none" stroke="#000000" d="M140.2548,-249.1997C142.2339,-238.0112 144.801,-223.4983 147.0303,-210.8954"/>
<polygon fill="#000000" stroke="#000000" points="150.5077,-211.3299 148.8031,-200.8731 143.6147,-210.1106 150.5077,-211.3299"/>
</g>
<!-- Dubgaill and Finngail -->
<g id="node22" class="node">
<title>Dubgaill and Finngail</title>
<polygon fill="#dedede" stroke="#000000" points="228.3767,-124 89.6233,-124 89.6233,-88 228.3767,-88 228.3767,-124"/>
<text text-anchor="middle" x="159" y="-101.8" font-family="Times,serif" font-size="14.00" fill="#000000">Dubgaill and Finngail</text>
</g>
<!-- Finngail&#45;&gt;Dubgaill and Finngail -->
<g id="edge21" class="edge">
<title>Finngail&#45;&gt;Dubgaill and Finngail</title>
<path fill="none" stroke="#000000" d="M153.6589,-164.5995C154.4871,-155.5132 155.5075,-144.3176 156.4338,-134.1549"/>
<polygon fill="#000000" stroke="#000000" points="159.9308,-134.3463 157.353,-124.0699 152.9597,-133.7109 159.9308,-134.3463"/>
</g>
<!-- Waterford -->
<g id="node20" class="node">
<title>Waterford</title>
<polygon fill="#dedede" stroke="#000000" points="91.5178,-285.6 18.4822,-285.6 18.4822,-249.6 91.5178,-249.6 91.5178,-285.6"/>
<text text-anchor="middle" x="55" y="-263.4" font-family="Times,serif" font-size="14.00" fill="#000000">Waterford</text>
</g>
<!-- Waterford&#45;&gt;Finngail -->
<g id="edge19" class="edge">
<title>Waterford&#45;&gt;Finngail</title>
<path fill="none" stroke="#000000" d="M76.0476,-249.1997C89.9975,-237.0042 108.4654,-220.8591 123.6974,-207.5429"/>
<polygon fill="#000000" stroke="#000000" points="126.1017,-210.0899 131.3268,-200.8731 121.4945,-204.8198 126.1017,-210.0899"/>
</g>
<!-- Dublin -->
<g id="node21" class="node">
<title>Dublin</title>
<polygon fill="#dedede" stroke="#000000" points="236.3879,-285.6 181.6121,-285.6 181.6121,-249.6 236.3879,-249.6 236.3879,-285.6"/>
<text text-anchor="middle" x="209" y="-263.4" font-family="Times,serif" font-size="14.00" fill="#000000">Dublin</text>
</g>
<!-- Dublin&#45;&gt;Finngail -->
<g id="edge20" class="edge">
<title>Dublin&#45;&gt;Finngail</title>
<path fill="none" stroke="#000000" d="M196.6318,-249.1997C188.8105,-237.5637 178.5722,-222.332 169.8747,-209.3926"/>
<polygon fill="#000000" stroke="#000000" points="172.6316,-207.22 164.1482,-200.8731 166.822,-211.125 172.6316,-207.22"/>
</g>
<!-- Scandinavia -->
<g id="node23" class="node">
<title>Scandinavia</title>
<polygon fill="#dedede" stroke="#000000" points="100.4233,-52 15.5767,-52 15.5767,-16 100.4233,-16 100.4233,-52"/>
<text text-anchor="middle" x="58" y="-29.8" font-family="Times,serif" font-size="14.00" fill="#000000">Scandinavia</text>
</g>
<!-- Dubgaill and Finngail&#45;&gt;Scandinavia -->
<g id="edge22" class="edge">
<title>Dubgaill and Finngail&#45;&gt;Scandinavia</title>
<path fill="none" stroke="#000000" d="M133.5134,-87.8314C120.8341,-78.7927 105.3404,-67.7476 91.6945,-58.0198"/>
<polygon fill="#000000" stroke="#000000" points="93.6529,-55.1176 83.4784,-52.1628 89.5895,-60.8176 93.6529,-55.1176"/>
</g>
<!-- North Sea Empire -->
<g id="node24" class="node">
<title>North Sea Empire</title>
<polygon fill="#dedede" stroke="#000000" points="235.5786,-52 118.4214,-52 118.4214,-16 235.5786,-16 235.5786,-52"/>
<text text-anchor="middle" x="177" y="-29.8" font-family="Times,serif" font-size="14.00" fill="#000000">North Sea Empire</text>
</g>
<!-- Dubgaill and Finngail&#45;&gt;North Sea Empire -->
<g id="edge23" class="edge">
<title>Dubgaill and Finngail&#45;&gt;North Sea Empire</title>
<path fill="none" stroke="#000000" d="M163.5422,-87.8314C165.4884,-80.0463 167.8068,-70.7729 169.9663,-62.1347"/>
<polygon fill="#000000" stroke="#000000" points="173.3668,-62.9636 172.3967,-52.4133 166.5758,-61.2658 173.3668,-62.9636"/>
</g>
<!-- Dubgaill and Finngail&#45;&gt;clt -->
<g id="edge37" class="edge">
<title>Dubgaill and Finngail&#45;&gt;clt</title>
<path fill="none" stroke="#000000" d="M214.1126,-87.9263C225.2301,-84.8412 236.9097,-81.9938 248,-80 365.3013,-58.9119 732.8642,-41.0291 852.1848,-35.6515"/>
<polygon fill="#000000" stroke="#000000" points="852.4628,-39.1427 862.2964,-35.199 852.1499,-32.1497 852.4628,-39.1427"/>
</g>
<!-- Wales -->
<g id="node25" class="node">
<title>Wales</title>
<polygon fill="#ee7621" stroke="#000000" points="1150,-124 1096,-124 1096,-88 1150,-88 1150,-124"/>
<text text-anchor="middle" x="1123" y="-101.8" font-family="Times,serif" font-size="14.00" fill="#000000">Wales</text>
</g>
<!-- Prydain -->
<g id="node26" class="node">
<title>Prydain</title>
<polygon fill="#ee7621" stroke="#000000" points="1154.5501,-52 1095.4499,-52 1095.4499,-16 1154.5501,-16 1154.5501,-52"/>
<text text-anchor="middle" x="1125" y="-29.8" font-family="Times,serif" font-size="14.00" fill="#000000">Prydain</text>
</g>
<!-- Wales&#45;&gt;Prydain -->
<g id="edge24" class="edge">
<title>Wales&#45;&gt;Prydain</title>
<path fill="none" stroke="#000000" d="M1123.5047,-87.8314C1123.7186,-80.131 1123.9729,-70.9743 1124.2106,-62.4166"/>
<polygon fill="#000000" stroke="#000000" points="1127.7094,-62.5066 1124.4885,-52.4133 1120.7121,-62.3122 1127.7094,-62.5066"/>
</g>
<!-- Wales&#45;&gt;clt -->
<g id="edge33" class="edge">
<title>Wales&#45;&gt;clt</title>
<path fill="none" stroke="#000000" d="M1097.9073,-87.8542C1093.116,-84.9266 1088.0239,-82.1548 1083,-80 1031.5643,-57.9388 967.6737,-45.3514 927.858,-39.0989"/>
<polygon fill="#000000" stroke="#000000" points="928.1985,-35.6106 917.7869,-37.5722 927.1493,-42.5316 928.1985,-35.6106"/>
</g>
<!-- Dumnonia -->
<g id="node28" class="node">
<title>Dumnonia</title>
<polygon fill="#ff7f50" stroke="#000000" points="960.6025,-124 885.3975,-124 885.3975,-88 960.6025,-88 960.6025,-124"/>
<text text-anchor="middle" x="923" y="-101.8" font-family="Times,serif" font-size="14.00" fill="#000000">Dumnonia</text>
</g>
<!-- Cornwall&#45;&gt;Dumnonia -->
<g id="edge25" class="edge">
<title>Cornwall&#45;&gt;Dumnonia</title>
<path fill="none" stroke="#000000" d="M922.237,-164.5995C922.3553,-155.5132 922.5011,-144.3176 922.6334,-134.1549"/>
<polygon fill="#000000" stroke="#000000" points="926.1341,-134.1146 922.7647,-124.0699 919.1347,-134.0234 926.1341,-134.1146"/>
</g>
<!-- Dumnonia&#45;&gt;clt -->
<g id="edge32" class="edge">
<title>Dumnonia&#45;&gt;clt</title>
<path fill="none" stroke="#000000" d="M914.6727,-87.8314C911.027,-79.8771 906.6691,-70.369 902.6373,-61.5723"/>
<polygon fill="#000000" stroke="#000000" points="905.7877,-60.0456 898.4394,-52.4133 899.4243,-62.9622 905.7877,-60.0456"/>
</g>
<!-- Brittany -->
<g id="node29" class="node">
<title>Brittany</title>
<polygon fill="#deb887" stroke="#000000" points="1070.8837,-200.8 1009.1163,-200.8 1009.1163,-164.8 1070.8837,-164.8 1070.8837,-200.8"/>
<text text-anchor="middle" x="1040" y="-178.6" font-family="Times,serif" font-size="14.00" fill="#000000">Brittany</text>
</g>
<!-- Gallia -->
<g id="node30" class="node">
<title>Gallia</title>
<polygon fill="#deb887" stroke="#000000" points="1071,-124 1017,-124 1017,-88 1071,-88 1071,-124"/>
<text text-anchor="middle" x="1044" y="-101.8" font-family="Times,serif" font-size="14.00" fill="#000000">Gallia</text>
</g>
<!-- Brittany&#45;&gt;Gallia -->
<g id="edge26" class="edge">
<title>Brittany&#45;&gt;Gallia</title>
<path fill="none" stroke="#000000" d="M1040.9479,-164.5995C1041.4212,-155.5132 1042.0043,-144.3176 1042.5336,-134.1549"/>
<polygon fill="#000000" stroke="#000000" points="1046.0339,-134.2384 1043.0589,-124.0699 1039.0434,-133.8743 1046.0339,-134.2384"/>
</g>
<!-- Brittany&#45;&gt;clt -->
<g id="edge34" class="edge">
<title>Brittany&#45;&gt;clt</title>
<path fill="none" stroke="#000000" d="M1015.1147,-164.5833C1012.5396,-162.1316 1010.1013,-159.5185 1008,-156.8 985.0595,-127.1218 998.4634,-107.5441 973,-80 960.4972,-66.4755 943.0853,-55.9907 927.4365,-48.47"/>
<polygon fill="#000000" stroke="#000000" points="928.5322,-45.1234 917.9804,-44.1696 925.6344,-51.4954 928.5322,-45.1234"/>
</g>
<!-- Gallia&#45;&gt;clt -->
<g id="edge35" class="edge">
<title>Gallia&#45;&gt;clt</title>
<path fill="none" stroke="#000000" d="M1017.0525,-87.9608C1012.4451,-85.1534 1007.6451,-82.394 1003,-80 978.5627,-67.4056 949.8581,-55.7576 927.4948,-47.3338"/>
<polygon fill="#000000" stroke="#000000" points="928.6107,-44.0146 918.0178,-43.8132 926.173,-50.5765 928.6107,-44.0146"/>
</g>
</g>
</svg>
